<svg width="73" height="23" viewBox="0 0 73 23" fill="none" xmlns="http://www.w3.org/2000/svg">
<path d="M3.04049 22.738L7.21245 5.23586H0.542587L1.43088 1.27284H19.3729L18.4988 5.23586H12.6731L8.50112 22.738H3.04049Z" fill="white"/>
<path d="M15.5851 22.738L20.6312 1.27284H35.1178L34.0362 5.20766H25.3968L24.31 9.88994H32.7686L31.9087 13.6414H23.4642L22.3065 18.8032H31.3608L30.0717 22.738H15.5851Z" fill="white"/>
<path d="M47.8107 22.4217C47.5365 22.4875 47.1536 22.5533 46.6619 22.6192C46.1796 22.685 45.6548 22.7461 45.0875 22.8025C44.5296 22.8589 43.9623 22.9059 43.3855 22.9435C42.8182 22.9811 42.3076 22.9999 41.8537 22.9999C40.5583 22.9999 39.4047 22.873 38.3929 22.6192C37.3812 22.3653 36.5254 21.9563 35.8257 21.3922C35.126 20.828 34.5918 20.0947 34.223 19.1921C33.8542 18.28 33.6698 17.1706 33.6698 15.8637C33.6698 15.356 33.6935 14.8247 33.7408 14.27C33.788 13.7153 33.8684 13.1277 33.9819 12.5071L34.4499 10.0531C34.8092 8.12569 35.3151 6.55083 35.9676 5.32854C36.6294 4.09686 37.4332 3.13313 38.3787 2.43737C39.3243 1.73221 40.4164 1.248 41.6551 0.984735C42.9033 0.721474 44.298 0.589844 45.8392 0.589844C46.2931 0.589844 46.799 0.608648 47.3569 0.646257C47.9147 0.683866 48.4632 0.730876 49.0021 0.78729C49.5506 0.843703 50.0517 0.909518 50.5056 0.984735C50.9689 1.05055 51.7432 1.32738 51.9985 1.4026L51.1244 5.03237C50.7651 5.00417 50.1652 4.97596 49.7397 4.94775C49.3142 4.91955 48.8698 4.89134 48.4064 4.86313C47.9526 4.83493 47.4892 4.81612 47.0165 4.80672C46.5531 4.78792 46.0993 4.77851 45.6548 4.77851C44.8511 4.77851 44.1372 4.85843 43.5131 5.01827C42.8985 5.17811 42.3548 5.47428 41.882 5.90678C41.4187 6.32987 41.0216 6.91751 40.6906 7.66969C40.3692 8.41246 40.0997 9.37148 39.8822 10.5468L39.4141 13.0007C39.2439 13.9597 39.1588 14.7589 39.1588 15.3983C39.1588 16.0752 39.2439 16.6347 39.4141 17.0766C39.5843 17.5091 39.8349 17.8522 40.1659 18.1061C40.5063 18.36 40.9223 18.5386 41.414 18.642C41.9151 18.7361 42.4872 18.7831 43.1302 18.7831C43.5746 18.7831 44.0332 18.7784 44.506 18.769C44.9788 18.7502 45.4468 18.7313 45.9101 18.7125C46.3735 18.6937 46.8226 18.6702 47.2576 18.642C47.6925 18.6044 48.5046 18.5715 48.864 18.5433L47.8107 22.4217Z" fill="white"/>
<path d="M62.9643 22.738L64.7745 13.6978H56.4541L54.2431 22.738H49.1975L53.8286 1.27284H58.8742L57.1491 9.59377H65.677L67.8029 1.27284H72.8202L67.9816 22.738H62.9643Z" fill="white"/>
</svg>
